<svg fill="#2E9ECE" height="800px" width="800px" version="1.1" id="Layer_1" xmlns="http://www.w3.org/2000/svg"
     viewBox="0 0 512 512" xml:space="preserve">
<g transform="translate(1 1)">
	<g>
		<g>
			<path d="M442.733,67.267c-124.587,0-180.053-64-180.907-64.853C260.12-0.147,257.56-1,255-1c-2.56,0-5.12,0.853-6.827,3.413
				c0,0-56.32,64.853-180.907,64.853c-5.12,0-8.533,3.413-8.533,8.533v162.987c0,88.747,40.107,173.227,106.667,226.133
				c27.307,21.333,56.32,36.693,87.04,46.08c0.853,0,1.707,0,2.56,0s1.707,0,2.56,0c30.72-9.387,59.733-24.747,87.04-46.08
				c66.56-52.907,106.667-137.387,106.667-226.133V75.8C451.267,70.68,447.853,67.267,442.733,67.267z M434.2,238.787
				c0,83.627-37.547,162.987-100.693,212.48c-24.747,18.773-51.2,33.28-78.507,41.813c-27.307-8.533-53.76-22.187-78.507-41.813
				C113.347,401.773,75.8,322.413,75.8,238.787V84.333C179.907,81.773,237.08,37.4,255,19.48
				c17.92,17.92,75.093,62.293,179.2,64.853V238.787z"/>
            <path d="M218.307,356.547c0.853,0.853,1.707,0.853,2.56,0.853c3.413,0,6.827-2.56,8.533-5.973l68.267-187.733
				c1.707-4.267-0.853-9.387-5.12-11.093c-4.267-1.707-9.387,0.853-11.093,5.12l-68.267,187.733
				C211.48,349.72,214.04,354.84,218.307,356.547z"/>
            <path d="M161.133,229.4v-42.667c0-9.387,7.68-17.067,17.067-17.067c5.12,0,8.533-3.413,8.533-8.533s-3.413-8.533-8.533-8.533
				c-18.773,0-34.133,15.36-34.133,34.133v39.253l-23.04,23.04c-3.413,3.413-3.413,8.533,0,11.947l23.04,23.04v39.253
				c0,18.773,15.36,34.133,34.133,34.133c5.12,0,8.533-3.413,8.533-8.533s-3.413-8.533-8.533-8.533
				c-9.387,0-17.067-7.68-17.067-17.067V280.6c0-2.56-0.853-4.267-2.56-5.973L138.947,255l19.627-19.627
				C160.28,233.667,161.133,231.96,161.133,229.4z"/>
            <path d="M348.867,280.6v42.667c0,9.387-7.68,17.067-17.067,17.067c-5.12,0-8.533,3.413-8.533,8.533s3.413,8.533,8.533,8.533
				c18.773,0,34.133-15.36,34.133-34.133v-39.253l23.04-23.04c1.707-1.707,2.56-3.413,2.56-5.973c0-2.56-0.853-4.267-2.56-5.973
				l-23.04-23.04v-39.253c0-18.773-15.36-34.133-34.133-34.133c-5.12,0-8.533,3.413-8.533,8.533s3.413,8.533,8.533,8.533
				c9.387,0,17.067,7.68,17.067,17.067V229.4c0,2.56,0.853,4.267,2.56,5.973L371.053,255l-19.627,19.627
				C349.72,276.333,348.867,278.04,348.867,280.6z"/>
		</g>
	</g>
</g>
</svg>